<svg xmlns="http://www.w3.org/2000/svg" width="20" height="20" viewBox="0 0 20 20" fill="none">
    <path d="M5.83325 15.0008C4.91659 15.0008 4.17492 15.7508 4.17492 16.6675C4.17492 17.5841 4.91659 18.3341 5.83325 18.3341C6.74992 18.3341 7.49992 17.5841 7.49992 16.6675C7.49992 15.7508 6.74992 15.0008 5.83325 15.0008ZM1.66659 3.33415H2.49992L5.49992 9.65915L4.37492 11.6925C3.76659 12.8091 4.56659 14.1675 5.83325 14.1675H14.9999C15.4583 14.1675 15.8333 13.7925 15.8333 13.3341C15.8333 12.8758 15.4583 12.5008 14.9999 12.5008H5.83325L6.74992 10.8341H12.9583C13.5833 10.8341 14.1333 10.4925 14.4166 9.97581L17.3999 4.56748C17.4701 4.44117 17.5062 4.29871 17.5044 4.15419C17.5027 4.00968 17.4633 3.86812 17.39 3.74353C17.3168 3.61894 17.2123 3.51563 17.0869 3.44383C16.9614 3.37203 16.8194 3.33422 16.6749 3.33415H4.34159L3.78325 2.14248C3.71628 2.00024 3.61017 1.88002 3.47734 1.79589C3.34452 1.71177 3.19047 1.66723 3.03325 1.66748H1.66659C1.20825 1.66748 0.833252 2.04248 0.833252 2.50081C0.833252 2.95915 1.20825 3.33415 1.66659 3.33415ZM14.1666 15.0008C13.2499 15.0008 12.5083 15.7508 12.5083 16.6675C12.5083 17.5841 13.2499 18.3341 14.1666 18.3341C15.0833 18.3341 15.8333 17.5841 15.8333 16.6675C15.8333 15.7508 15.0833 15.0008 14.1666 15.0008Z" fill="#667085"/>
    <script xmlns="" id="transcript-settings"/><script xmlns=""/><script xmlns=""/><script xmlns=""/><script xmlns=""/></svg>