<svg xmlns="http://www.w3.org/2000/svg" width="30" height="30" viewBox="0 0 30 30" fill="none">
    <path d="M15 1.87598C18.481 1.87598 21.8194 3.25879 24.2808 5.7202C26.7422 8.18161 28.125 11.52 28.125 15.001C28.125 18.4819 26.7422 21.8203 24.2808 24.2818C21.8194 26.7432 18.481 28.126 15 28.126C11.519 28.126 8.18064 26.7432 5.71922 24.2818C3.25781 21.8203 1.875 18.4819 1.875 15.001C1.875 11.52 3.25781 8.18161 5.71922 5.7202C8.18064 3.25879 11.519 1.87598 15 1.87598ZM15 13.4091L11.9513 10.3604C11.7402 10.1493 11.4538 10.0307 11.1553 10.0307C10.8568 10.0307 10.5705 10.1493 10.3594 10.3604C10.1483 10.5714 10.0297 10.8578 10.0297 11.1563C10.0297 11.4548 10.1483 11.7411 10.3594 11.9522L13.4081 15.001L10.3594 18.0497C10.2549 18.1543 10.1719 18.2783 10.1154 18.4149C10.0588 18.5515 10.0297 18.6978 10.0297 18.8457C10.0297 18.9935 10.0588 19.1399 10.1154 19.2764C10.1719 19.413 10.2549 19.5371 10.3594 19.6416C10.4639 19.7461 10.588 19.829 10.7246 19.8856C10.8611 19.9422 11.0075 19.9713 11.1553 19.9713C11.3031 19.9713 11.4495 19.9422 11.5861 19.8856C11.7226 19.829 11.8467 19.7461 11.9513 19.6416L15 16.5929L18.0487 19.6416C18.1533 19.7461 18.2774 19.829 18.4139 19.8856C18.5505 19.9422 18.6969 19.9713 18.8447 19.9713C18.9925 19.9713 19.1389 19.9422 19.2754 19.8856C19.412 19.829 19.5361 19.7461 19.6406 19.6416C19.7451 19.5371 19.8281 19.413 19.8846 19.2764C19.9412 19.1399 19.9703 18.9935 19.9703 18.8457C19.9703 18.6978 19.9412 18.5515 19.8846 18.4149C19.8281 18.2783 19.7451 18.1543 19.6406 18.0497L16.5919 15.001L19.6406 11.9522C19.7451 11.8477 19.8281 11.7236 19.8846 11.587C19.9412 11.4505 19.9703 11.3041 19.9703 11.1563C19.9703 11.0085 19.9412 10.8621 19.8846 10.7255C19.8281 10.589 19.7451 10.4649 19.6406 10.3604C19.5361 10.2558 19.412 10.1729 19.2754 10.1163C19.1389 10.0598 18.9925 10.0307 18.8447 10.0307C18.6969 10.0307 18.5505 10.0598 18.4139 10.1163C18.2774 10.1729 18.1533 10.2558 18.0487 10.3604L15 13.4091Z" fill="black"/>
    <script xmlns="" id="transcript-settings"/><script xmlns=""/><script xmlns=""/><script xmlns=""/><script xmlns=""/></svg>