<svg xmlns="http://www.w3.org/2000/svg" width="20" height="20" viewBox="0 0 20 20" fill="none">
    <path d="M18.4863 9.86424L10.4414 1.82518C10.3835 1.76714 10.3147 1.72109 10.2389 1.68968C10.1632 1.65826 10.082 1.64209 10 1.64209C9.918 1.64209 9.83681 1.65826 9.76106 1.68968C9.68532 1.72109 9.61652 1.76714 9.55859 1.82518L1.51367 9.86424C1.2793 10.0986 1.14648 10.417 1.14648 10.749C1.14648 11.4385 1.70703 11.999 2.39648 11.999H3.24414V17.7353C3.24414 18.081 3.52344 18.3603 3.86914 18.3603H8.75V13.9853H10.9375V18.3603H16.1309C16.4766 18.3603 16.7559 18.081 16.7559 17.7353V11.999H17.6035C17.9355 11.999 18.2539 11.8681 18.4883 11.6318C18.9746 11.1435 18.9746 10.3525 18.4863 9.86424V9.86424Z" fill="#667085"/>
    <script xmlns="" id="transcript-settings"/><script xmlns=""/><script xmlns=""/><script xmlns=""/><script xmlns=""/></svg>