<svg width="43" height="43" fill="none" xmlns="http://www.w3.org/2000/svg"><rect width="43" height="43" rx="6" fill="#3F38DD"/><path d="M20.816 32.88V10.32h1.536v22.56h-1.536zm.6-2.688c-1.28 0-2.504-.192-3.672-.576-1.168-.4-2.088-.912-2.76-1.536l.888-1.872c.64.56 1.456 1.024 2.448 1.392a8.83 8.83 0 003.096.552c.976 0 1.768-.112 2.376-.336.608-.224 1.056-.528 1.344-.912.288-.4.432-.848.432-1.344 0-.576-.192-1.04-.576-1.392-.368-.352-.856-.632-1.464-.84a14.39 14.39 0 00-1.968-.576c-.72-.16-1.448-.344-2.184-.552a10.641 10.641 0 01-1.992-.84 4.144 4.144 0 01-1.44-1.344c-.368-.576-.552-1.312-.552-2.208 0-.864.224-1.656.672-2.376.464-.736 1.168-1.32 2.112-1.752.96-.448 2.176-.672 3.648-.672.976 0 1.944.128 2.904.384s1.792.624 2.496 1.104l-.792 1.92a7.487 7.487 0 00-2.28-1.032 8.618 8.618 0 00-2.328-.336c-.944 0-1.72.12-2.328.36-.608.24-1.056.56-1.344.96-.272.4-.408.848-.408 1.344 0 .592.184 1.064.552 1.416.384.352.872.632 1.464.84.608.208 1.272.4 1.992.576.72.16 1.44.344 2.16.552.736.208 1.4.48 1.992.816a4.083 4.083 0 011.464 1.344c.368.56.552 1.28.552 2.16 0 .848-.232 1.64-.696 2.376-.464.72-1.184 1.304-2.16 1.752-.96.432-2.176.648-3.648.648z" fill="#fff"/></svg>