<svg xmlns="http://www.w3.org/2000/svg" width="1400" height="258" viewBox="0 0 1400 258" fill="none">
    <path fill-rule="evenodd" clip-rule="evenodd" d="M0 43L58.3333 78.8333C116.667 114.667 233.333 186.333 350 172C466.667 157.667 583.333 57.3333 700 50.1667C816.667 43 933.333 129 1050 136.167C1166.67 143.333 1283.33 71.6667 1341.67 35.8333L1400 0V258H1341.67C1283.33 258 1166.67 258 1050 258C933.333 258 816.667 258 700 258C583.333 258 466.667 258 350 258C233.333 258 116.667 258 58.3333 258H0V43Z" fill="#0099FF"/>
    <script xmlns="" id="transcript-settings"/><script xmlns=""/><script xmlns=""/><script xmlns=""/><script xmlns=""/></svg>