<svg width="54" height="54" fill="none" xmlns="http://www.w3.org/2000/svg"><path d="M1.11 34.874A27.034 27.034 0 0026.966 54C41.897 54 54 41.91 54 27S41.897 0 26.97 0A27.02 27.02 0 000 25.205l.01.02 14.526 5.97a7.419 7.419 0 014.432-1.225l6.614-9.598-.003-.136a10.28 10.28 0 0110.267-10.27 10.28 10.28 0 0110.267 10.27 10.284 10.284 0 01-10.5 10.274l-9.463 6.75a7.503 7.503 0 01-10.379 7.121 7.483 7.483 0 01-4.428-5.292l-10.23-4.215H1.11z" fill="#48316D"/><path d="M16.43 42.805a5.788 5.788 0 004.448-10.682 5.754 5.754 0 00-4.263-.067l3.453 1.43a4.258 4.258 0 11-3.274 7.864l-3.341-1.383a5.737 5.737 0 002.977 2.835v.003zm12.575-22.569a6.851 6.851 0 006.84 6.848 6.851 6.851 0 006.842-6.848 6.851 6.851 0 00-6.841-6.84 6.851 6.851 0 00-6.841 6.84zm6.851-5.153a5.143 5.143 0 11-.006 10.285 5.143 5.143 0 01.006-10.285z" fill="#48316D"/></svg>