<svg width="50" height="50" fill="none" xmlns="http://www.w3.org/2000/svg"><path d="M29.908 5.406a.522.522 0 01.752-.066l1.92 1.691-6.04 7.552h4.002L34.929 9.1l3.442 3.035a.52.52 0 01.054.725l-1.438 1.723h4.05a3.646 3.646 0 00-.6-4.791L32.73 2.994a3.647 3.647 0 00-5.273.479L18.7 14.583h3.98l7.228-9.177zm-18.97 8.136a1.563 1.563 0 100 3.125H38.02a6.77 6.77 0 016.77 6.77V36.98a6.77 6.77 0 01-6.77 6.771h-25a6.771 6.771 0 01-6.771-6.77V15.103a4.688 4.688 0 014.688-4.687h9l-2.484 3.125h-6.517zm21.354 17.187c0 .863.7 1.563 1.562 1.563h4.167a1.563 1.563 0 000-3.125h-4.167a1.563 1.563 0 00-1.562 1.562z" fill="#48316D"/></svg>